<svg xmlns="http://www.w3.org/2000/svg" xmlns:osb="http://www.openswatchbook.org/uri/2009/osb" xmlns:svg="http://www.w3.org/2000/svg" id="svg7384" width="16" height="16" version="1.1"><metadata id="metadata90"/><title id="title9167">Gnome Symbolic Icon Theme</title><defs id="defs7386"><linearGradient id="linearGradient7212" osb:paint="solid"><stop id="stop7214" offset="0" stop-color="#000" stop-opacity="1"/></linearGradient></defs><g id="layer9" display="inline" transform="translate(-463.0002,145)"><path id="rect6038-5-6" fill="#bebebe" fill-opacity="1" stroke="none" stroke-width="1" d="m 464.96895,-144.96875 c -1.08949,0 -1.96875,0.87926 -1.96875,1.96875 l 0,12 c 0,1.08949 0.87926,1.96875 1.96875,1.96875 l 12.0625,0 c 1.08949,0 1.96875,-0.87926 1.96875,-1.96875 l 0,-12 c 0,-1.08949 -0.87926,-1.96875 -1.96875,-1.96875 l -12.0625,0 z m 0,1 12.0625,0 c 0.55278,0 0.96875,0.41597 0.96875,0.96875 l 0,11.03125 c 0,0.55278 -0.41597,0.96875 -0.96875,0.96875 l -12.0625,0 c -0.55278,0 -0.96875,-0.41597 -0.96875,-0.96875 l 0,-11.03125 c 0,-0.60207 0.35439,-0.96875 0.96875,-0.96875 z m 0.0312,0.96875 0,1 1,0 0,-1 -1,0 z m 2,0 0,1 1,0 0,-1 -1,0 z m 3,0 0,1 1,0 0,-1 -1,0 z m 2,0 0,1 1,0 0,-1 -1,0 z m 2,0 0,1 1,0 0,-1 -1,0 z m 2,0 0,1 1,0 0,-1 -1,0 z m -11,2 0,1 1,0 0,-1 -1,0 z m 2,0 0,1 1,0 0,-1 -1,0 z m 3,0 0,1 1,0 0,-1 -1,0 z m 2,0 0,1 1,0 0,-1 -1,0 z m 2,0 0,1 1,0 0,-1 -1,0 z m 2,0 0,1 1,0 0,-1 -1,0 z m -2,2 0,1 -1,0 c -0.54535,0 -1,0.45465 -1,1 l 0,1 c 0,0.54535 0.45465,1 1,1 l 0.1875,0 0.8125,0 1,0 0.65625,0 0.34375,0 c 0.54535,0 1,-0.45465 1,-1 l 0,-1 c 0,-0.54535 -0.45465,-1 -1,-1 l -1,0 0,-1 -1,0 z m -6,1 c -1.65093,0 -3,1.34907 -3,3 0,1.65093 1.34907,3 3,3 1.65093,0 3,-1.34907 3,-3 0,-1.65093 -1.34907,-3 -3,-3 z m 0,1 c 1.11049,0 2,0.88951 2,2 0,1.11049 -0.88951,2 -2,2 -1.11049,0 -2,-0.88951 -2,-2 0,-1.11049 0.88951,-2 2,-2 z m 5,0 3,0 0,1 -3,0 0,-1 z m 1,3 0,2 1,0 0,-2 -1,0 z" baseline-shift="baseline" color="#000" direction="ltr" display="inline" enable-background="accumulate" font-family="Sans" font-size="medium" font-stretch="normal" font-style="normal" font-variant="normal" font-weight="normal" letter-spacing="normal" overflow="visible" text-anchor="start" text-decoration="none" visibility="visible" word-spacing="normal" writing-mode="lr-tb" style="line-height:normal;-inkscape-font-specification:Sans;text-indent:0;text-align:start;text-decoration-line:none;text-transform:none;block-progression:tb;marker:none"/></g></svg>